<svg viewBox="0 0 198.806 46.365" xmlns="http://www.w3.org/2000/svg">
  <g id="group" stroke-linecap="round" fill-rule="evenodd" fill="currentColor">
    <path
      d="M 29.419 9.937 L 38.331 29.199 L 45.948 10.059 Q 46.143 9.571 46.631 9.229 Q 47.12 8.887 47.657 8.887 Q 48.609 8.887 49.158 9.68 Q 49.708 10.474 49.341 11.426 L 38.575 38.428 Q 37.867 40.186 36.67 42.017 Q 35.474 43.848 33.692 45.105 Q 31.91 46.362 29.444 46.362 Q 28.687 46.362 28.15 45.825 Q 27.613 45.288 27.613 44.531 Q 27.613 43.823 28.126 43.274 Q 28.638 42.725 29.346 42.7 Q 31.031 42.578 32.154 41.712 Q 33.277 40.845 34.046 39.514 Q 34.815 38.184 35.364 36.682 Q 35.914 35.181 36.451 33.838 L 26.099 11.499 Q 25.928 11.109 25.928 10.694 Q 25.928 9.937 26.465 9.4 Q 27.002 8.862 27.759 8.862 Q 28.272 8.862 28.748 9.18 Q 29.224 9.497 29.419 9.937 Z M 147.779 21.631 Q 147.779 18.237 149.39 15.369 Q 151.002 12.5 153.736 10.742 Q 156.47 8.985 159.839 8.985 Q 162.33 8.985 164.38 9.912 Q 166.431 10.84 167.92 12.354 Q 169.41 13.867 170.215 15.674 Q 170.411 16.065 170.411 16.455 Q 170.411 17.212 169.874 17.737 Q 169.336 18.262 168.58 18.262 Q 168.091 18.262 167.603 17.957 Q 167.115 17.652 166.919 17.188 Q 166.089 15.357 164.234 13.989 Q 162.378 12.622 159.839 12.622 Q 157.471 12.622 155.567 13.88 Q 153.663 15.137 152.54 17.2 Q 151.417 19.263 151.417 21.655 Q 151.417 24.048 152.527 26.111 Q 153.638 28.174 155.555 29.431 Q 157.471 30.689 159.839 30.689 Q 162.378 30.689 164.246 29.334 Q 166.114 27.979 166.944 26.148 Q 167.139 25.684 167.627 25.366 Q 168.116 25.049 168.604 25.049 Q 169.361 25.049 169.898 25.586 Q 170.435 26.123 170.435 26.88 Q 170.435 27.295 170.264 27.637 Q 169.459 29.419 167.957 30.945 Q 166.456 32.471 164.393 33.399 Q 162.33 34.326 159.839 34.326 Q 156.446 34.326 153.711 32.569 Q 150.977 30.811 149.378 27.918 Q 147.779 25.025 147.779 21.631 Z M 21.607 23.169 L 3.834 23.169 Q 4.224 25.196 5.433 26.917 Q 6.641 28.638 8.484 29.688 Q 10.328 30.737 12.598 30.737 Q 14.527 30.737 16.382 29.883 Q 18.238 29.029 19.434 27.539 Q 19.971 26.831 20.875 26.831 Q 21.631 26.831 22.169 27.368 Q 22.706 27.905 22.706 28.662 Q 22.706 29.321 22.266 29.859 Q 20.508 32.007 17.957 33.203 Q 15.406 34.4 12.647 34.4 Q 9.107 34.4 6.238 32.642 Q 3.37 30.884 1.685 27.942 Q 0.001 25 0.001 21.485 Q 0.001 18.14 1.6 15.296 Q 3.199 12.451 5.933 10.718 Q 8.668 8.985 12.037 8.985 Q 15.137 8.985 17.737 10.523 Q 20.337 12.061 21.912 14.661 Q 23.487 17.261 23.487 20.435 Q 23.487 21.558 23.084 22.363 Q 22.681 23.169 21.607 23.169 Z M 73.536 23.169 L 55.762 23.169 Q 56.153 25.196 57.361 26.917 Q 58.57 28.638 60.413 29.688 Q 62.256 30.737 64.527 30.737 Q 66.456 30.737 68.311 29.883 Q 70.167 29.029 71.363 27.539 Q 71.9 26.831 72.803 26.831 Q 73.56 26.831 74.097 27.368 Q 74.634 27.905 74.634 28.662 Q 74.634 29.321 74.195 29.859 Q 72.437 32.007 69.886 33.203 Q 67.335 34.4 64.576 34.4 Q 61.036 34.4 58.167 32.642 Q 55.298 30.884 53.614 27.942 Q 51.929 25 51.929 21.485 Q 51.929 18.14 53.528 15.296 Q 55.127 12.451 57.862 10.718 Q 60.596 8.985 63.965 8.985 Q 67.066 8.985 69.666 10.523 Q 72.266 12.061 73.841 14.661 Q 75.416 17.261 75.416 20.435 Q 75.416 21.558 75.013 22.363 Q 74.61 23.169 73.536 23.169 Z M 141.016 23.169 L 123.243 23.169 Q 123.633 25.196 124.842 26.917 Q 126.05 28.638 127.894 29.688 Q 129.737 30.737 132.007 30.737 Q 133.936 30.737 135.792 29.883 Q 137.647 29.029 138.843 27.539 Q 139.38 26.831 140.284 26.831 Q 141.041 26.831 141.578 27.368 Q 142.115 27.905 142.115 28.662 Q 142.115 29.321 141.675 29.859 Q 139.918 32.007 137.366 33.203 Q 134.815 34.4 132.056 34.4 Q 128.516 34.4 125.648 32.642 Q 122.779 30.884 121.094 27.942 Q 119.41 25 119.41 21.485 Q 119.41 18.14 121.009 15.296 Q 122.608 12.451 125.342 10.718 Q 128.077 8.985 131.446 8.985 Q 134.546 8.985 137.147 10.523 Q 139.747 12.061 141.321 14.661 Q 142.896 17.261 142.896 20.435 Q 142.896 21.558 142.493 22.363 Q 142.09 23.169 141.016 23.169 Z M 196.924 23.169 L 179.151 23.169 Q 179.542 25.196 180.75 26.917 Q 181.959 28.638 183.802 29.688 Q 185.645 30.737 187.916 30.737 Q 189.844 30.737 191.7 29.883 Q 193.555 29.029 194.752 27.539 Q 195.289 26.831 196.192 26.831 Q 196.949 26.831 197.486 27.368 Q 198.023 27.905 198.023 28.662 Q 198.023 29.321 197.584 29.859 Q 195.826 32.007 193.274 33.203 Q 190.723 34.4 187.964 34.4 Q 184.424 34.4 181.556 32.642 Q 178.687 30.884 177.002 27.942 Q 175.318 25 175.318 21.485 Q 175.318 18.14 176.917 15.296 Q 178.516 12.451 181.251 10.718 Q 183.985 8.985 187.354 8.985 Q 190.455 8.985 193.055 10.523 Q 195.655 12.061 197.23 14.661 Q 198.804 17.261 198.804 20.435 Q 198.804 21.558 198.401 22.363 Q 197.999 23.169 196.924 23.169 Z M 84.449 30.445 L 84.449 41.48 Q 84.449 42.237 83.912 42.774 Q 83.375 43.311 82.618 43.311 Q 81.861 43.311 81.324 42.774 Q 80.787 42.237 80.787 41.48 L 80.787 10.742 Q 80.787 9.986 81.324 9.448 Q 81.861 8.911 82.618 8.911 Q 83.375 8.911 83.851 9.448 Q 84.327 9.986 84.327 10.742 L 84.449 13.086 Q 85.84 11.67 87.891 10.303 Q 89.942 8.936 92.505 8.936 Q 95.826 8.936 98.389 10.694 Q 100.953 12.451 102.418 15.308 Q 103.882 18.164 103.882 21.485 Q 103.882 23.975 103.028 26.294 Q 102.173 28.613 100.611 30.432 Q 99.048 32.251 96.937 33.325 Q 94.825 34.4 92.286 34.4 Q 89.893 34.4 87.916 33.203 Q 85.938 32.007 84.449 30.445 Z M 109.669 32.617 L 109.62 10.474 Q 109.62 9.839 110.206 9.363 Q 110.792 8.887 111.304 8.887 Q 112.159 8.887 112.72 9.4 Q 113.282 9.912 113.282 10.742 L 113.331 32.642 Q 113.331 33.399 112.794 33.936 Q 112.256 34.473 111.5 34.473 Q 110.743 34.473 110.206 33.924 Q 109.669 33.374 109.669 32.617 Z M 92.432 12.598 Q 89.966 12.598 88.172 13.941 Q 86.377 15.283 85.425 17.395 Q 84.473 19.507 84.473 21.826 Q 84.473 24.097 85.413 26.135 Q 86.353 28.174 88.123 29.456 Q 89.893 30.737 92.335 30.737 Q 94.703 30.737 96.461 29.383 Q 98.218 28.028 99.195 25.891 Q 100.171 23.755 100.171 21.411 Q 100.171 19.092 99.207 17.078 Q 98.243 15.064 96.497 13.831 Q 94.752 12.598 92.432 12.598 Z M 3.882 19.556 L 19.752 19.556 Q 19.532 17.652 18.458 16.077 Q 17.383 14.502 15.723 13.574 Q 14.063 12.647 12.061 12.647 Q 9.986 12.647 8.277 13.599 Q 6.568 14.551 5.433 16.113 Q 4.297 17.676 3.882 19.556 Z M 55.811 19.556 L 71.68 19.556 Q 71.461 17.652 70.386 16.077 Q 69.312 14.502 67.652 13.574 Q 65.992 12.647 63.99 12.647 Q 61.915 12.647 60.206 13.599 Q 58.497 14.551 57.361 16.113 Q 56.226 17.676 55.811 19.556 Z M 123.292 19.556 L 139.161 19.556 Q 138.941 17.652 137.867 16.077 Q 136.793 14.502 135.132 13.574 Q 133.472 12.647 131.47 12.647 Q 129.395 12.647 127.686 13.599 Q 125.977 14.551 124.842 16.113 Q 123.707 17.676 123.292 19.556 Z M 179.2 19.556 L 195.069 19.556 Q 194.849 17.652 193.775 16.077 Q 192.701 14.502 191.041 13.574 Q 189.38 12.647 187.378 12.647 Q 185.303 12.647 183.594 13.599 Q 181.885 14.551 180.75 16.113 Q 179.615 17.676 179.2 19.556 Z M 111.402 5.176 Q 110.352 5.176 109.559 4.419 Q 108.765 3.662 108.765 2.588 Q 108.765 1.514 109.559 0.757 Q 110.352 0 111.402 0 Q 112.476 0 113.257 0.757 Q 114.039 1.514 114.039 2.588 Q 114.039 3.662 113.257 4.419 Q 112.476 5.176 111.402 5.176 Z"
      vector-effect="non-scaling-stroke" />
  </g>
</svg>
